<svg width="96" height="96" xmlns="http://www.w3.org/2000/svg" xmlns:xlink="http://www.w3.org/1999/xlink" overflow="hidden"><defs><clipPath id="clip0"><rect x="833" y="271" width="96" height="96"/></clipPath></defs><g clip-path="url(#clip0)" transform="translate(-833 -271)"><path d="M860 303C860 304.105 859.105 305 858 305 856.895 305 856 304.105 856 303 856 301.895 856.895 301 858 301 859.105 301 860 301.895 860 303Z"/><path d="M860 311C860 312.105 859.105 313 858 313 856.895 313 856 312.105 856 311 856 309.895 856.895 309 858 309 859.105 309 860 309.895 860 311Z"/><path d="M856 307C856 308.105 855.105 309 854 309 852.895 309 852 308.105 852 307 852 305.895 852.895 305 854 305 855.105 305 856 305.895 856 307Z"/><path d="M864 307C864 308.105 863.105 309 862 309 860.895 309 860 308.105 860 307 860 305.895 860.895 305 862 305 863.105 305 864 305.895 864 307Z"/><path d="M888 299C888 300.105 887.105 301 886 301 884.895 301 884 300.105 884 299 884 297.895 884.895 297 886 297 887.105 297 888 297.895 888 299Z"/><path d="M888 307C888 308.105 887.105 309 886 309 884.895 309 884 308.105 884 307 884 305.895 884.895 305 886 305 887.105 305 888 305.895 888 307Z"/><path d="M884 303C884 304.105 883.105 305 882 305 880.895 305 880 304.105 880 303 880 301.895 880.895 301 882 301 883.105 301 884 301.895 884 303Z"/><path d="M892 303C892 304.105 891.105 305 890 305 888.895 305 888 304.105 888 303 888 301.895 888.895 301 890 301 891.105 301 892 301.895 892 303Z"/><path d="M915 316 909 322 901 322 901 344 909 344 915 350 921 350 921 316Z"/><path d="M886 312C881 312 877 308 877 303 877 298 881 294 886 294 891 294 895 298 895 303 895 308 891 312 886 312ZM889 344C887.9 344 887 343.1 887 342 887 340.9 887.9 340 889 340 890.1 340 891 340.9 891 342 891 343.1 890.1 344 889 344ZM870 316C871.3 314.2 872.3 312.2 872.7 309.9 874 312.4 876.1 314.5 878.5 316L870 316ZM858 316C853 316 849 312 849 307 849 302 853 298 858 298 863 298 867 302 867 307 867 312 863 316 858 316ZM893.4 316C897.9 313.4 901 308.6 901 303 901 294.7 894.3 288 886 288 878.7 288 872.7 293.2 871.3 300.1 868.8 295.3 863.8 292 858 292 849.7 292 843 298.7 843 307 843 311.9 845.4 316.2 849 319L849 322 847 322 845 320 841 320 841 330 845 330 847 328 849 328 849 346C849 348.2 850.8 350 853 350L893 350C895.2 350 897 348.2 897 346L897 320C897 317.9 895.4 316.2 893.4 316Z"/></g></svg>